Jump_normalized_pl06_filtered_grf
version=1
nRows=27
nColumns=37
inDegrees=yes
endheader
time		1_ground_force_vx		1_ground_force_vy		1_ground_force_vz		1_ground_force_px		1_ground_force_py		1_ground_force_pz		1_ground_torque_x		1_ground_torque_y		1_ground_torque_z		2_ground_force_vx		2_ground_force_vy		2_ground_force_vz		2_ground_force_px		2_ground_force_py		2_ground_force_pz		2_ground_torque_x		2_ground_torque_y		2_ground_torque_z		3_ground_force_vx		3_ground_force_vy		3_ground_force_vz		3_ground_force_px		3_ground_force_py		3_ground_force_pz		3_ground_torque_x		3_ground_torque_y		3_ground_torque_z		4_ground_force_vx		4_ground_force_vy		4_ground_force_vz		4_ground_force_px		4_ground_force_py		4_ground_force_pz		4_ground_torque_x		4_ground_torque_y		4_ground_torque_z		
0.151167		-0.000000		0.000000		0.000000		0.146963		0.000000		0.232437		0.000000		0.000000		-0.000000		0.000000		0.000000		0.000000		-0.138296		0.000000		0.256471		0.000000		-0.000000		0.000000		-9.568224		269.366159		224.263997		0.374705		1.308838		1.914810		0.445372		19.854578		-47.217853		-13.956571		429.362067		297.185921		-0.265960		1.308971		1.926366		-0.682373		20.992599		14.530172		
0.154399		-0.000000		0.000000		0.000000		0.146963		0.000000		0.232437		0.000000		0.000000		-0.000000		0.000000		0.000000		0.000000		-0.138296		0.000000		0.256471		0.000000		-0.000000		0.000000		-9.666094		271.420594		226.424780		0.374671		1.308849		1.914859		0.462952		20.104624		-47.683007		-13.925274		436.686230		302.925268		-0.265946		1.308946		1.926392		-0.677829		21.256219		14.745245		
0.157631		-0.000000		0.000000		0.000000		0.146963		0.000000		0.232437		0.000000		0.000000		-0.000000		0.000000		0.000000		0.000000		-0.138296		0.000000		0.256471		0.000000		-0.000000		0.000000		-9.705426		273.550960		228.872397		0.374643		1.308855		1.914921		0.480624		20.389866		-48.179807		-14.022896		444.167041		308.921613		-0.265940		1.308917		1.926415		-0.679487		21.522346		14.968957		
0.160864		-0.000000		0.000000		0.000000		0.146963		0.000000		0.232437		0.000000		0.000000		-0.000000		-0.000000		0.000000		0.000000		-0.138296		0.000000		0.256471		0.000000		-0.000000		0.000000		-9.664924		275.598934		231.618366		0.374625		1.308845		1.914985		0.497894		20.719459		-48.686876		-14.251492		451.706049		315.161047		-0.265938		1.308889		1.926437		-0.687400		21.787383		15.201333		
0.164096		-0.000000		0.000000		0.000000		0.146963		0.000000		0.232437		0.000000		0.000000		-0.000000		-0.000000		0.000000		0.000000		-0.138296		0.000000		0.256471		0.000000		-0.000000		0.000000		-9.539952		277.436057		234.651417		0.374613		1.308819		1.915036		0.518046		21.100927		-49.186611		-14.617581		459.210642		321.676460		-0.265941		1.308868		1.926465		-0.701877		22.049447		15.445608		
0.167328		0.000000		-0.000000		-0.000000		0.146963		0.000000		0.232437		-0.000000		-0.000000		0.000000		-0.000000		-0.000000		0.000000		-0.138296		0.000000		0.256471		-0.000000		0.000000		-0.000000		-9.335828		278.983229		237.946161		0.374603		1.308776		1.915072		0.543916		21.537916		-49.668772		-15.128675		466.605270		328.522998		-0.265949		1.308857		1.926501		-0.723260		22.307133		15.705791		
0.170561		0.000000		-0.000000		-0.000000		0.146963		0.000000		0.232437		-0.000000		-0.000000		0.000000		-0.000000		-0.000000		-0.000000		-0.138296		0.000000		0.256471		-0.000000		0.000000		-0.000000		-9.073758		280.205831		241.495275		0.374591		1.308724		1.915090		0.577775		22.032819		-50.130906		-15.790166		473.822740		335.756764		-0.265964		1.308860		1.926545		-0.751730		22.557503		15.984529		
0.173793		0.000000		-0.000000		-0.000000		0.146963		0.000000		0.232437		-0.000000		-0.000000		0.000000		-0.000000		-0.000000		-0.000000		-0.138296		0.000000		0.256471		-0.000000		0.000000		-0.000000		-8.784010		281.115197		245.325980		0.374570		1.308671		1.915100		0.621607		22.589378		-50.578249		-16.592398		480.811957		343.383817		-0.265988		1.308872		1.926595		-0.786681		22.796357		16.280582		
0.177025		0.000000		-0.000000		-0.000000		0.146963		0.000000		0.232437		-0.000000		-0.000000		0.000000		0.000000		-0.000000		-0.000000		-0.138296		0.000000		0.256471		-0.000000		0.000000		-0.000000		-8.491948		281.768111		249.512017		0.374542		1.308624		1.915109		0.676118		23.216010		-51.022462		-17.508605		487.512864		351.359310		-0.266021		1.308890		1.926647		-0.826681		23.018271		16.589682		
0.180258		0.000000		-0.000000		-0.000000		0.146963		0.000000		0.232437		-0.000000		-0.000000		0.000000		0.000000		-0.000000		-0.000000		-0.138296		0.000000		0.256471		-0.000000		0.000000		-0.000000		-8.219511		282.240416		254.190711		0.374506		1.308584		1.915129		0.360881		-12.391880		-11.160352		-18.507297		493.832170		359.606066		-0.266063		1.308912		1.926701		-0.870097		23.216918		16.906436		
0.183490		-0.000000		0.000000		0.000000		0.146963		0.000000		0.232437		0.000000		0.000000		-0.000000		0.000000		0.000000		-0.000000		-0.138296		0.000000		0.256471		0.000000		-0.000000		0.000000		-7.986537		282.607350		259.525549		0.374466		1.308554		1.915166		0.352243		-12.464298		-11.446284		-19.548871		499.663529		368.007217		-0.266110		1.308930		1.926756		-0.915007		23.387330		17.225003		
0.186722		-0.000000		0.000000		0.000000		0.146963		0.000000		0.232437		0.000000		0.000000		-0.000000		0.000000		0.000000		0.000000		-0.138296		0.000000		0.256471		0.000000		-0.000000		0.000000		-7.808305		282.905655		265.686425		0.374428		1.308528		1.915219		0.345960		-12.534604		-11.771685		-20.590746		504.877750		376.438051		-0.266156		1.308944		1.926815		-0.959468		23.525829		17.540908		
0.189955		-0.000000		0.000000		0.000000		0.146963		0.000000		0.232437		0.000000		0.000000		-0.000000		0.000000		0.000000		0.000000		-0.138296		0.000000		0.256471		0.000000		-0.000000		0.000000		-7.683746		283.117110		272.756521		0.374394		1.308503		1.915287		0.342061		-12.603641		-12.142418		-21.607163		509.358600		384.792896		-0.266198		1.308950		1.926882		-1.002444		23.631228		17.852114		
0.193187		-0.000000		0.000000		0.000000		0.146963		0.000000		0.232437		0.000000		0.000000		-0.000000		-0.000000		0.000000		0.000000		-0.138296		0.000000		0.256471		0.000000		-0.000000		0.000000		-7.576095		283.165027		280.700503		0.374372		1.308476		1.915366		0.339051		-12.672429		-12.562146		-22.566237		513.016352		392.979659		-0.266229		1.308948		1.926965		-1.042682		23.704148		18.157794		
0.196419		-0.000000		0.000000		0.000000		0.146963		0.000000		0.232437		0.000000		0.000000		-0.000000		-0.000000		0.000000		0.000000		-0.138296		0.000000		0.256471		0.000000		-0.000000		0.000000		-7.417392		282.923376		289.314859		0.374358		1.308447		1.915448		0.334030		-12.741000		-13.028839		-23.447298		515.800126		400.961068		-0.266251		1.308940		1.927065		-1.079466		23.746404		18.459441		
0.199652		0.000000		-0.000000		-0.000000		0.146963		0.000000		0.232437		-0.000000		-0.000000		0.000000		-0.000000		-0.000000		-0.000000		-0.138296		0.000000		0.256471		-0.000000		0.000000		-0.000000		-7.121873		282.241715		298.258157		0.374351		1.308416		1.915531		0.323170		-12.807334		-13.534134		-24.216873		517.694249		408.714662		-0.266259		1.308930		1.927185		-1.111484		23.760676		18.758822		
0.202884		0.000000		-0.000000		-0.000000		0.146963		0.000000		0.232437		-0.000000		-0.000000		0.000000		-0.000000		-0.000000		-0.000000		-0.138296		0.000000		0.256471		-0.000000		0.000000		-0.000000		-6.608236		280.978220		307.096039		0.374344		1.308389		1.915615		0.302606		-12.866664		-14.062681		-24.830051		518.720342		416.220599		-0.266259		1.308918		1.927324		-1.136903		23.750841		19.057645		
0.206116		0.000000		-0.000000		-0.000000		0.146963		0.000000		0.232437		-0.000000		-0.000000		0.000000		-0.000000		-0.000000		-0.000000		-0.138296		0.000000		0.256471		-0.000000		0.000000		-0.000000		-5.829523		279.007647		315.383962		0.374329		1.308372		1.915707		0.269779		-12.912025		-14.595486		-25.259517		518.893534		423.458110		-0.266252		1.308908		1.927480		-1.154696		23.720336		19.357666		
0.209348		0.000000		-0.000000		-0.000000		0.146963		0.000000		0.232437		-0.000000		-0.000000		0.000000		0.000000		-0.000000		-0.000000		-0.138296		0.000000		0.256471		-0.000000		0.000000		-0.000000		-4.772343		276.229891		322.737111		0.374302		1.308372		1.915818		0.223487		-12.935970		-15.113954		-25.502795		518.221741		430.393813		-0.266239		1.308897		1.927647		-1.164933		23.671670		19.659808		
0.212581		0.000000		-0.000000		-0.000000		0.146963		0.000000		0.232437		-0.000000		-0.000000		0.000000		0.000000		-0.000000		-0.000000		-0.138296		0.000000		0.256471		-0.000000		0.000000		-0.000000		-3.437895		272.582231		328.875476		0.374258		1.308397		1.915957		0.163105		-12.932413		-15.603216		-25.575794		516.713852		436.975614		-0.266220		1.308888		1.927817		-1.168460		23.606680		19.963746		
0.215813		-0.000000		0.000000		0.000000		0.146963		0.000000		0.232437		0.000000		0.000000		-0.000000		0.000000		0.000000		-0.000000		-0.138296		0.000000		0.256471		0.000000		-0.000000		0.000000		-1.834613		268.050952		333.631013		0.374199		1.308458		1.916137		0.088266		-12.897327		-16.052765		-25.529045		514.369948		443.153565		-0.266194		1.308879		1.927986		-1.167675		23.526795		20.269429		
0.219045		-0.000000		0.000000		0.000000		0.146963		0.000000		0.232437		0.000000		0.000000		-0.000000		0.000000		0.000000		0.000000		-0.138296		0.000000		0.256471		0.000000		-0.000000		0.000000		0.031299		262.679120		336.968355		0.374134		1.308543		1.916350		-0.001531		-12.828288		-16.456317		-25.437875		511.190364		448.908520		-0.266159		1.308871		1.928144		-1.166106		23.433651		20.578570		
0.222278		-0.000000		0.000000		0.000000		0.146963		0.000000		0.232437		0.000000		0.000000		-0.000000		0.000000		0.000000		0.000000		-0.138296		0.000000		0.256471		0.000000		-0.000000		0.000000		2.136388		256.571333		338.903312		0.374075		1.308647		1.916582		-0.105962		-12.724332		-16.807527		-25.371722		507.180553		454.229949		-0.266116		1.308865		1.928287		-1.167061		23.329541		20.893903		
0.225510		-0.000000		0.000000		0.000000		0.146963		0.000000		0.232437		0.000000		0.000000		-0.000000		-0.000000		0.000000		0.000000		-0.138296		0.000000		0.256471		0.000000		-0.000000		0.000000		4.421430		249.889360		339.503135		0.374030		1.308751		1.916814		-0.222689		-12.585825		-17.099279		-25.388121		502.362586		459.133606		-0.266068		1.308865		1.928411		-1.173290		23.216243		21.218455		
0.228742		-0.000000		0.000000		0.000000		0.146963		0.000000		0.232437		0.000000		0.000000		-0.000000		-0.000000		0.000000		0.000000		-0.138296		0.000000		0.256471		0.000000		-0.000000		0.000000		6.768240		242.813247		338.800558		0.374001		1.308841		1.917026		-0.346024		-12.413329		-17.320523		-25.482034		496.761496		463.612086		-0.266022		1.308870		1.928516		-1.184648		23.094187		21.553106		
0.231975		0.000000		-0.000000		-0.000000		0.146963		0.000000		0.232437		-0.000000		-0.000000		0.000000		-0.000000		-0.000000		0.000000		-0.138296		0.000000		0.256471		-0.000000		0.000000		-0.000000		9.015626		235.533932		336.830158		0.373982		1.308909		1.917211		-0.467342		-12.209276		-17.460132		-25.604959		490.418377		467.648148		-0.265983		1.308885		1.928608		-1.198830		22.961498		21.895394		
0.235207		0.000000		-0.000000		-0.000000		0.146963		0.000000		0.232437		-0.000000		-0.000000		0.000000		-0.000000		-0.000000		-0.000000		-0.138296		0.000000		0.256471		-0.000000		0.000000		-0.000000		11.004566		228.204121		333.578872		0.373967		1.308956		1.917368		-0.577534		-11.976291		-17.506446		-25.686523		483.349193		471.204433		-0.265962		1.308910		1.928690		-1.212380		22.813622		22.240425		
